<svg id="Capa_1" data-name="Capa 1" xmlns="http://www.w3.org/2000/svg" viewBox="0 0 178.53 68.45"><defs><style>.cls-1{fill:none;}.cls-2{fill:#0e7f34;}.cls-3{fill:#bd0000;}.cls-4{font-size:34.89px;fill:#c13234;font-family:CalistoMT, Calisto MT;}.cls-5{font-size:19.76px;font-family:CenturyGothic, Century Gothic;}.cls-5,.cls-6{fill:#fff;}</style></defs><title>logo-cano-contratista</title><path class="cls-1" d="M45.59,5.71,62.66,2.09A34.23,34.23,0,0,0,1.76,15l17.07-3.62a20,20,0,0,0-2.5,5.15L1,19.77c0,.18,0,.35,0,.53l15.16-3.21a19.54,19.54,0,0,0-.74,4.78L1,24.92c0,.17,0,.34,0,.51l14.34-3a20.67,20.67,0,0,0,.43,4.18c0,.11.06.22.08.33l-14.16,3c0,.16.07.33.11.49L16,27.4a19.79,19.79,0,0,0,1.65,4.27L3.21,34.74c.07.16.13.32.19.48l14.54-3.08a19.24,19.24,0,0,0,3,4L5.42,39.42l.27.46,15.64-3.31a19.8,19.8,0,0,0,5,3.56L8.48,43.91A34.23,34.23,0,0,0,68.24,31.25L50.4,35a20,20,0,0,0,3.12-5.29l15.64-3.31.06-.53L53.74,29.18a19.83,19.83,0,0,0,1.09-4.86l14.22-3a1.73,1.73,0,0,1,.32,0l0-.62a1.66,1.66,0,0,1-.39.15l-14.09,3a19,19,0,0,0-.22-4.57L68,16.39a1.41,1.41,0,0,1,.84.07c-.06-.33-.12-.67-.2-1a1.45,1.45,0,0,1-.75.43L54.54,18.72a3.43,3.43,0,0,0-.06-.34,19.83,19.83,0,0,0-1.3-4L67,11.46a1.56,1.56,0,0,1,.61,0c-.08-.23-.16-.47-.25-.7a1.46,1.46,0,0,1-.46.2L53,13.91a19.39,19.39,0,0,0-2.62-4.07L65.5,6.63l-.25-.47L50,9.4A20.06,20.06,0,0,0,45.59,5.71Z" transform="translate(-0.94 11.76)"/><path class="cls-2" d="M53,13.91,66.86,11a1.46,1.46,0,0,0,.46-.2A34.84,34.84,0,0,0,65.5,6.63L50.34,9.84A19.39,19.39,0,0,1,53,13.91Z" transform="translate(-0.94 11.76)"/><path class="cls-2" d="M16.16,17.09,1,20.3a34,34,0,0,0,0,4.62l14.39-3.05A19.54,19.54,0,0,1,16.16,17.09Z" transform="translate(-0.94 11.76)"/><path class="cls-2" d="M18.83,11.38,1.76,15A34.29,34.29,0,0,0,1,19.77l15.29-3.24A20,20,0,0,1,18.83,11.38Z" transform="translate(-0.94 11.76)"/><path class="cls-2" d="M45.59,5.71A20.06,20.06,0,0,1,50,9.4L65.25,6.16a35,35,0,0,0-2.59-4.07Z" transform="translate(-0.94 11.76)"/><path class="cls-2" d="M15.84,26.57a20.67,20.67,0,0,1-.43-4.18l-14.34,3a33.4,33.4,0,0,0,.62,4.14c0,.11.05.22.07.34l14.16-3C15.9,26.79,15.87,26.68,15.84,26.57Z" transform="translate(-0.94 11.76)"/><path class="cls-2" d="M53.18,14.39a19.83,19.83,0,0,1,1.3,4,3.43,3.43,0,0,1,.06.34L67.9,15.89a1.45,1.45,0,0,0,.75-.43s0-.06,0-.08a37.41,37.41,0,0,0-1.07-3.91,1.56,1.56,0,0,0-.61,0Z" transform="translate(-0.94 11.76)"/><path class="cls-2" d="M54.64,19.22a19,19,0,0,1,.22,4.57l14.09-3a1.66,1.66,0,0,0,.39-.15,35.82,35.82,0,0,0-.49-4.2,1.41,1.41,0,0,0-.84-.07Z" transform="translate(-0.94 11.76)"/><path class="cls-2" d="M16,27.4l-14.17,3a35.86,35.86,0,0,0,1.34,4.34l14.48-3.07A19.79,19.79,0,0,1,16,27.4Z" transform="translate(-0.94 11.76)"/><path class="cls-2" d="M17.94,32.14,3.4,35.22a33.84,33.84,0,0,0,2,4.2l15.49-3.28A19.24,19.24,0,0,1,17.94,32.14Z" transform="translate(-0.94 11.76)"/><path class="cls-2" d="M54.83,24.32a19.83,19.83,0,0,1-1.09,4.86L69.22,25.9a35.49,35.49,0,0,0,.15-4.62,1.73,1.73,0,0,0-.32,0Z" transform="translate(-0.94 11.76)"/><path class="cls-2" d="M21.33,36.57,5.69,39.88a34.36,34.36,0,0,0,2.79,4l17.85-3.78A19.8,19.8,0,0,1,21.33,36.57Z" transform="translate(-0.94 11.76)"/><path class="cls-2" d="M50.4,35l17.84-3.78a34.16,34.16,0,0,0,.92-4.82L53.52,29.74A20,20,0,0,1,50.4,35Z" transform="translate(-0.94 11.76)"/><circle class="cls-3" cx="34.23" cy="34.23" r="18.54"/><text class="cls-4" transform="translate(70.55 37.91)">CANO</text><text class="cls-5" transform="translate(71.72 55.24)">Contratista</text><path class="cls-6" d="M44.72,14.62l-.35-1.51,2.8-1.83a2.1,2.1,0,0,0-.46-.59c-.24-.15-.35-.16-1.13-.16a2.4,2.4,0,0,0-1.29.36A9.13,9.13,0,0,0,42.7,12a5.22,5.22,0,0,0-.86,1.55L38.65,15a.79.79,0,0,0-.41-.24,1.92,1.92,0,0,0-.67.18,1.83,1.83,0,0,0-.52-.26.61.61,0,0,1-.39-.34,4.92,4.92,0,0,0-.6-1.19,1.32,1.32,0,0,0-.62-.5,1.28,1.28,0,0,0-.31-.05l-.26-.1a7.27,7.27,0,0,0-.88,0,5,5,0,0,0-1.22.34c-.34.13-.42.29-.76,1a4.42,4.42,0,0,0-.39,1.38,1.54,1.54,0,0,0-.2.44c0,.15.15.34.15.34l.49.18a1.9,1.9,0,0,0,.13.85,1.93,1.93,0,0,0,.68.78l-1.79.78a1.57,1.57,0,0,0-.49-.31,1.51,1.51,0,0,0-1.07,0,3.67,3.67,0,0,0-1.45,1.06c-.39.42-.29.6-.29.6l.62.31,1.54-.49L30.07,21l-1.9,1.4a1.13,1.13,0,0,0,.29.33,2,2,0,0,0,.8.24,8.59,8.59,0,0,0,.16,1.12,4.07,4.07,0,0,1,0,1.45c0,.32-.18.24-.34.42a2,2,0,0,0-.26.47l-.47-.18,0-.39-.31-.13-1,0-1.63,2.57L24.89,31l.22.07.34-.07,4.07,2.31a1.6,1.6,0,0,0-.18.49c0,.23.28.54.41.67a11,11,0,0,0,.76.89,1.63,1.63,0,0,0,1,.45,3.67,3.67,0,0,0,1.53-.22c.49-.22.39-.44.23-.65a1.42,1.42,0,0,0-.75-.41C32.3,34.42,32,34,32,34v-.31l1.61-.36.6-2.36v-.76l.6-1.42.13.12.1.11a2.59,2.59,0,0,1,.49,1c.11.41.32,1.32.32,1.32s.7,1.77.9,2.37a5.42,5.42,0,0,0,.57,1.11H38a2.75,2.75,0,0,1,.54-.23,11.21,11.21,0,0,0,1.4-.34,7.54,7.54,0,0,0,1.59-.8c.18-.19-.07-.41-.07-.41a1.48,1.48,0,0,0-.52-.15,7.27,7.27,0,0,0-1.32,0,.94.94,0,0,1-.78-.43,11.92,11.92,0,0,1-.74-2,18.47,18.47,0,0,0-.35-2.06c-.12-.27-.58-1.13-.82-1.56a12.36,12.36,0,0,1-.54-1.28L36.15,24V21.63a1.6,1.6,0,0,1,.2-.78,5,5,0,0,0,1.36-1.12,3.62,3.62,0,0,0,.39-1.48l4.79-2.07a2.38,2.38,0,0,0,1,.47,5,5,0,0,0,2.34-.43A7.51,7.51,0,0,0,47.81,15v-.58l-.4-.35Z" transform="translate(-0.94 11.76)"/></svg>